<svg width="18" height="18" viewBox="0 0 18 18" fill="none" xmlns="http://www.w3.org/2000/svg">
<path d="M7.875 12.75C7.668 12.75 7.5 12.582 7.5 12.375C7.5 11.3407 6.6585 10.5 5.625 10.5C4.5915 10.5 3.75 11.3407 3.75 12.375C3.75 12.582 3.582 12.75 3.375 12.75C3.168 12.75 3 12.582 3 12.375C3 10.9275 4.1775 9.75 5.625 9.75C7.0725 9.75 8.25 10.9275 8.25 12.375C8.25 12.582 8.082 12.75 7.875 12.75ZM7.5 7.125C7.5 6.0915 6.6585 5.25 5.625 5.25C4.5915 5.25 3.75 6.0915 3.75 7.125C3.75 8.1585 4.5915 9 5.625 9C6.6585 9 7.5 8.1585 7.5 7.125ZM6.75 7.125C6.75 7.74525 6.24525 8.25 5.625 8.25C5.00475 8.25 4.5 7.74525 4.5 7.125C4.5 6.50475 5.00475 6 5.625 6C6.24525 6 6.75 6.50475 6.75 7.125ZM18 13.125V4.875C18 3.01425 16.4857 1.5 14.625 1.5H3.375C1.51425 1.5 0 3.01425 0 4.875V13.125C0 14.9857 1.51425 16.5 3.375 16.5H14.625C16.4857 16.5 18 14.9857 18 13.125ZM14.625 2.25C16.0725 2.25 17.25 3.4275 17.25 4.875V13.125C17.25 14.5725 16.0725 15.75 14.625 15.75H3.375C1.9275 15.75 0.75 14.5725 0.75 13.125V4.875C0.75 3.4275 1.9275 2.25 3.375 2.25H14.625ZM15 6.375C15 6.168 14.832 6 14.625 6H10.125C9.918 6 9.75 6.168 9.75 6.375C9.75 6.582 9.918 6.75 10.125 6.75H14.625C14.832 6.75 15 6.582 15 6.375ZM15 9.375C15 9.168 14.832 9 14.625 9H10.125C9.918 9 9.75 9.168 9.75 9.375C9.75 9.582 9.918 9.75 10.125 9.75H14.625C14.832 9.75 15 9.582 15 9.375ZM13.5 12.375C13.5 12.168 13.332 12 13.125 12H10.125C9.918 12 9.75 12.168 9.75 12.375C9.75 12.582 9.918 12.75 10.125 12.75H13.125C13.332 12.75 13.5 12.582 13.5 12.375Z" fill="#53626F"/>
</svg>
