<svg width="23" height="23" viewBox="0 0 23 23" fill="none" xmlns="http://www.w3.org/2000/svg">
<g clip-path="url(#clip0_1_640)">
<path d="M12.5386 7.94354C9.71821 7.96175 8.14941 9.58996 8.14941 12.3567C8.14941 15.1234 9.71916 16.7353 12.5443 16.7516C15.3637 16.7343 16.8808 15.2144 16.9335 12.3394C16.8846 9.52383 15.3264 7.96175 12.5386 7.94354ZM12.5443 15.7933C10.2453 15.7798 9.15279 14.6845 9.10775 12.3471C9.15183 10.0107 10.2443 8.91529 12.5386 8.90092C14.7801 8.91625 15.9359 10.0778 15.9752 12.3375C15.933 14.6806 14.8405 15.7798 12.5443 15.7933Z" fill="#73808B"/>
<path d="M23.0637 12.3011C21.4978 6.91717 17.8628 4.04696 12.5508 4H12.5421C7.11127 4.04504 3.57023 6.81942 2.01869 12.2445C1.99377 12.3308 1.99377 12.4218 2.01869 12.5071C3.55298 17.8987 7.09402 20.6539 12.5508 20.6961C17.9951 20.6539 21.5323 17.9179 23.0646 12.5665C23.0896 12.4793 23.0896 12.3873 23.0646 12.3011H23.0637ZM12.5498 19.7377C7.55115 19.6985 4.41835 17.2911 2.97702 12.3768C4.4174 7.496 7.63644 5.0005 12.546 4.95833C17.4153 5.00242 20.6295 7.51708 22.1034 12.4352C20.664 17.3093 17.536 19.6985 12.5498 19.7377Z" fill="#73808B"/>
<path d="M4 21L21 4" stroke="#73808B" stroke-linecap="round"/>
</g>
<defs>
<clipPath id="clip0_1_640">
<rect width="23" height="23" fill="white"/>
</clipPath>
</defs>
</svg>
