<svg width="16" height="16" viewBox="0 0 16 16" fill="none" xmlns="http://www.w3.org/2000/svg">
<g clip-path="url(#clip0_1_636)">
<path d="M14.847 1.18003L14.1004 0.526695C13.4204 -0.153305 12.267 -0.186638 11.5337 0.560028L10.287 2.19336C9.58702 2.89336 9.58702 4.03336 10.287 4.7267L11.2804 5.7467C10.2004 8.28003 8.20702 10.28 5.75368 11.28L4.73368 10.2867C4.39368 9.9467 3.94702 9.76003 3.46702 9.76003C2.98702 9.76003 2.54035 9.9467 2.23368 10.26L0.540351 11.5667C-0.159649 12.2667 -0.159649 13.4067 0.527017 14.0867L1.20702 14.8667C1.94035 15.6 2.92702 16.0067 4.00035 16.0067C9.16702 16.0067 16.0137 9.15336 16.0137 3.99336C16.0137 2.9267 15.607 1.93336 14.8604 1.1867L14.847 1.18003ZM3.98702 15.3334C3.09368 15.3334 2.27368 15 1.68035 14.4067L1.00035 13.62C0.560351 13.18 0.560351 12.4667 0.967017 12.0534L2.66035 10.7467C2.87368 10.5334 3.15368 10.4134 3.46035 10.4134C3.76702 10.4134 4.04702 10.5334 4.26035 10.7467L5.44035 11.9C5.53368 11.9934 5.66702 12.02 5.79368 11.9734C8.57368 10.9134 10.8337 8.65336 11.987 5.7867C12.0337 5.6667 12.007 5.5267 11.9137 5.4267L10.7604 4.2467C10.3204 3.8067 10.3204 3.09336 10.787 2.62003L12.0337 0.986695C12.4737 0.546695 13.187 0.546695 13.647 1.00003L14.3937 1.65336C15.0004 2.26003 15.3337 3.08003 15.3337 3.97336C15.3337 8.7467 8.76035 15.32 3.98702 15.32V15.3334Z" fill="#53626F"/>
</g>
<defs>
<clipPath id="clip0_1_636">
<rect width="16" height="16" fill="white"/>
</clipPath>
</defs>
</svg>
